<?xml version="1.0" encoding="UTF-8"?>
<svg version="1.1" xmlns="http://www.w3.org/2000/svg" width="800" height="800">
<path d="M0 0 C7.92 0 15.84 0 24 0 C28.56152596 12.3316282 33.12077158 24.66408973 37.67488098 36.99845886 C39.66325072 42.38320269 41.65386919 47.76709569 43.64912415 53.14929199 C44.41214988 55.20891654 45.17361068 57.26911102 45.93432617 59.32958984 C46.81982471 61.7280438 47.70779982 64.12558567 48.59887695 66.52197266 C51.33126565 73.94043848 53.74723054 81.42236191 56 89 C57.44248059 86.2529698 58.55427914 83.55502227 59.50537109 80.60327148 C59.78722763 79.73435776 60.06908417 78.86544403 60.35948181 77.97019958 C60.81188988 76.5598922 60.81188988 76.5598922 61.2734375 75.12109375 C61.93478857 73.0794187 62.59616664 71.03775239 63.25756836 68.99609375 C63.6033493 67.92472168 63.94913025 66.85334961 64.3053894 65.74951172 C69.72804826 48.95843864 75.21760801 32.19233812 80.9375 15.5 C81.1920697 14.75362274 81.4466394 14.00724548 81.70892334 13.23825073 C82.41575798 11.16803715 83.12682971 9.09934223 83.83984375 7.03125 C84.43333618 5.30745117 84.43333618 5.30745117 85.03881836 3.54882812 C86 1 86 1 87 0 C88.70772358 -0.08713831 90.41898649 -0.10700007 92.12890625 -0.09765625 C93.68061523 -0.09282227 93.68061523 -0.09282227 95.26367188 -0.08789062 C96.35228516 -0.07951172 97.44089844 -0.07113281 98.5625 -0.0625 C100.2012207 -0.05573242 100.2012207 -0.05573242 101.87304688 -0.04882812 C104.58208495 -0.03699826 107.29101599 -0.02051543 110 0 C109.27887778 4.50072185 107.75865423 8.62505339 106.1484375 12.8671875 C105.85783447 13.64168243 105.56723145 14.41617737 105.26782227 15.21414185 C104.30762684 17.76931801 103.34157601 20.32223128 102.375 22.875 C101.69729432 24.67182444 101.01972482 26.46870025 100.34228516 28.265625 C98.23572825 33.84661845 96.1190094 39.42372468 94 45 C93.6709668 45.86661255 93.34193359 46.7332251 93.00292969 47.62609863 C84.2999396 70.5414214 75.33819309 93.33584979 66 116 C67.05574219 116.10957031 68.11148438 116.21914063 69.19921875 116.33203125 C76.59895214 117.11817868 83.97701594 117.96604531 91.33702946 119.06860733 C102.64677476 120.76180821 113.96061991 121.98701328 125.34765625 123.015625 C127.28780356 123.19406139 129.22793783 123.37263957 131.1680603 123.55134583 C136.38118039 124.02880274 141.5951183 124.49661533 146.80945969 124.96052933 C150.08533719 125.25203216 153.36104117 125.54543697 156.63674927 125.83883667 C192.87194513 129.07231552 229.13396944 131.72789073 265.4375 134.0625 C266.6154073 134.13870071 267.79331459 134.21490143 269.00691605 134.29341125 C275.80887842 134.73322676 282.61119954 135.16653191 289.41423416 135.58945274 C291.47400707 135.71765207 293.53371041 135.84697537 295.5933342 135.9775486 C313.94649352 137.13486292 331.75508318 136.87054786 350.0859375 135.46875 C352.19906711 135.31127402 354.31223732 135.15434209 356.42544556 134.9979248 C361.94961053 134.58797003 367.47333621 134.17239792 372.99694824 133.75506592 C381.85642524 133.08611506 390.71636462 132.42344253 399.57664871 131.76527405 C402.6566458 131.53530373 405.73633162 131.30146152 408.81600952 131.06726074 C410.71115047 130.92555506 412.60630171 130.78398688 414.50146484 130.64257812 C415.77183594 130.54439537 415.77183594 130.54439537 417.06787109 130.44422913 C418.26565689 130.35588051 418.26565689 130.35588051 419.48764038 130.26574707 C420.17001959 130.21412666 420.8523988 130.16250626 421.55545616 130.10932159 C425.0336851 129.95377293 428.51829468 130 432 130 C432 138.25 432 146.5 432 155 C413.61709569 155.10877458 395.25458896 154.89458419 376.875 154.5625 C375.75431122 154.54285187 374.63362244 154.52320374 373.47897339 154.50296021 C366.53668047 154.37989346 359.59519353 154.23435902 352.65362549 154.07574463 C349.01183477 154.00024535 345.37025587 153.9492616 341.72802734 153.89990234 C314.03888469 153.41880195 286.48047131 150.9599083 258.89369297 148.66740084 C256.18078452 148.44243193 253.46773458 148.21919774 250.75467741 147.99603051 C215.59185244 145.10340205 180.43982994 142.09207188 145.33255768 138.58145142 C142.68106902 138.31806954 140.0290887 138.06034391 137.37689209 137.80419922 C114.79978727 135.61242535 92.68943338 132.23754238 70.46469116 127.68766785 C67.31708387 127.06293444 64.16828266 126.50803039 61 126 C60.5153125 126.96679688 60.030625 127.93359375 59.53125 128.9296875 C55.4088928 137.00081802 51.11626058 144.23813413 45 151 C44.26265625 151.84175781 43.5253125 152.68351563 42.765625 153.55078125 C35.20899964 161.68773568 25.80317638 168.01569713 15 171 C13.68 171 12.36 171 11 171 C10.16142312 168.39741676 9.32896656 165.79314353 8.5 163.1875 C8.26152344 162.44951172 8.02304687 161.71152344 7.77734375 160.95117188 C6.80059864 157.86744804 6 155.25504191 6 152 C6.89460938 151.59910156 7.78921875 151.19820312 8.7109375 150.78515625 C22.47881216 144.39784037 32.59672803 135.26288297 40 122 C22.79734856 118.24597416 5.56793425 114.67190395 -11.70825195 111.27319336 C-12.43848572 111.1288385 -13.16871948 110.98448364 -13.92108154 110.83575439 C-15.91070135 110.44256366 -17.90077079 110.05165008 -19.89086914 109.66088867 C-23 109 -23 109 -26 108 C-26 106.02 -26 104.04 -26 102 C-11.1086302 103.61090627 3.67270259 105.85169518 18.47607422 108.11914062 C21.59296573 108.5955235 24.71050302 109.06748757 27.828125 109.5390625 C28.77705627 109.68590485 29.72598755 109.83274719 30.70367432 109.98403931 C31.58940125 110.11772919 32.47512817 110.25141907 33.38769531 110.38916016 C34.16026672 110.50748199 34.93283813 110.62580383 35.7288208 110.74771118 C38.16947853 111.01882614 40.54632168 111.04235383 43 111 C41.23553329 106.57537507 39.46935429 102.1514369 37.70214844 97.72790527 C37.02492013 96.03230875 36.34800026 94.33658901 35.67138672 92.64074707 C30.77150694 80.36200371 25.82942249 68.1009146 20.85404396 55.85260963 C18.9965384 51.2777889 17.14267397 46.70149088 15.28864956 42.12525845 C13.43244431 37.54508451 11.57002434 32.96749631 9.70348644 28.39152431 C8.52446578 25.49685999 7.35124713 22.59986974 6.17954063 19.70223808 C5.62650126 18.33807682 5.07101655 16.97490412 4.51297951 15.61277962 C3.74379799 13.73436646 2.98396982 11.85213138 2.22460938 9.96972656 C1.79321655 8.9090094 1.36182373 7.84829224 0.9173584 6.75543213 C0 4 0 4 0 0 Z " fill="#FBB446" transform="translate(297,359)"/>
<path d="M0 0 C0.67629456 -0.00100708 1.35258911 -0.00201416 2.04937744 -0.00305176 C15.02830243 0.01006957 27.17640543 0.47430117 38.625 7.25 C36.975 12.53 35.325 17.81 33.625 23.25 C32.42875 22.981875 31.2325 22.71375 30 22.4375 C29.16984375 22.25832031 28.3396875 22.07914062 27.484375 21.89453125 C25.50714398 21.44884393 23.53839286 20.96441736 21.578125 20.44921875 C3.81825287 16.05094056 -15.74369836 16.72696021 -32.0703125 25.71484375 C-45.1432106 34.42272333 -53.29309057 47.00205188 -56.6875 62.3125 C-59.50175219 81.03810114 -57.57111963 101.04396022 -46.6875 116.9375 C-37.09128036 129.49048842 -23.79696244 135.15444672 -8.375 137.25 C1.71063446 137.91271109 11.97194143 137.46768619 21.625 134.25 C21.955 119.73 22.285 105.21 22.625 90.25 C12.725 90.25 2.825 90.25 -7.375 90.25 C-7.375 84.64 -7.375 79.03 -7.375 73.25 C9.125 73.25 25.625 73.25 42.625 73.25 C42.625 97.67 42.625 122.09 42.625 147.25 C14.1022765 156.16335109 -15.32959167 160.39516584 -43.375 147.25 C-59.20791936 138.9180061 -69.53833597 125.5470779 -75.56640625 108.8828125 C-82.82877162 85.23627018 -81.27023051 59.48017884 -70.375 37.25 C-67.94297566 33.3682984 -65.26000579 29.80311239 -62.375 26.25 C-61.6325 25.21875 -60.89 24.1875 -60.125 23.125 C-43.99284604 6.25956632 -22.68445234 0.02317453 0 0 Z " fill="#C43137" transform="translate(242.375,305.75)"/>
<path d="M0 0 C29.37 0 58.74 0 89 0 C89 6.27 89 12.54 89 19 C66.89 19 44.78 19 22 19 C22 35.83 22 52.66 22 70 C43.12 70 64.24 70 86 70 C86 75.94 86 81.88 86 88 C64.88 88 43.76 88 22 88 C22 107.14 22 126.28 22 146 C45.43 146 68.86 146 93 146 C93 152.27 93 158.54 93 165 C62.31 165 31.62 165 0 165 C0 110.55 0 56.1 0 0 Z " fill="#C32F35" transform="translate(56,301)"/>
<path d="M0 0 C6.6 0 13.2 0 20 0 C26.46055354 8.40566643 26.46055354 8.40566643 28.30078125 12.53515625 C31.17028938 18.56210866 34.78236808 23.96885527 38.5 29.5 C43.47879623 37.0618042 48.32691985 44.68285259 53.00561523 52.43359375 C55.78334424 57.03064498 58.62986726 61.57574618 61.52636719 66.09887695 C68.82196357 77.50259444 75.60154893 89.14486582 81.64086914 101.26538086 C82.08459366 102.1551915 82.52831818 103.04500214 82.98548889 103.96177673 C83.48767189 104.97069725 83.48767189 104.97069725 84 106 C83.9550515 104.94611588 83.9550515 104.94611588 83.90919495 103.87094116 C83.01954084 82.29836749 82.87330668 60.76118441 82.93133545 39.1729126 C82.94180166 34.84705112 82.94618146 30.52118314 82.95117188 26.1953125 C82.9617082 17.79685612 82.97920387 9.39843724 83 1 C88.94 1 94.88 1 101 1 C101 44.89 101 88.78 101 134 C82 134 82 134 78.0625 130.25 C77.00184763 128.18665441 75.98807482 126.09906804 75 124 C73.69207115 121.73107868 72.33289849 119.49755615 70.96923828 117.26171875 C69.39203826 114.6754526 67.84385374 112.07318732 66.296875 109.46875 C63.02281683 104.0002514 59.62308228 98.61809732 56.1875 93.25 C55.60613281 92.34016357 55.02476562 91.43032715 54.42578125 90.49291992 C53.22861593 88.61940205 52.03134913 86.74594902 50.83398438 84.87255859 C38.78888332 66.00638993 27.01825443 47.03650886 17 27 C17 62.31 17 97.62 17 134 C11.39 134 5.78 134 0 134 C0 89.78 0 45.56 0 0 Z " fill="#C43339" transform="translate(616,320)"/>
<path d="M0 0 C33 0 66 0 100 0 C100 16.03099542 100 16.03099542 95.3125 21.6875 C94.29148914 23.04185458 93.27202185 24.39737386 92.25390625 25.75390625 C91.44977295 26.79248779 91.44977295 26.79248779 90.62939453 27.85205078 C87.85572523 31.50844013 85.31785633 35.32272632 82.75 39.125 C81.64933139 40.73628806 80.54775038 42.3469532 79.4453125 43.95703125 C73.92566429 52.03383146 68.41647906 60.1177672 62.90722656 68.20166016 C60.3950944 71.88753558 57.8822975 75.5729575 55.36938477 79.25830078 C54.1249602 81.08341347 52.88065645 82.90860855 51.63647461 84.73388672 C48.45144706 89.40626008 45.2644941 94.0773017 42.07421875 98.74609375 C41.42324219 99.69935547 40.77226562 100.65261719 40.1015625 101.63476562 C38.88478588 103.41647425 37.6674065 105.19777151 36.44921875 106.97851562 C31.23725451 114.61285869 26.128728 122.306908 21 130 C47.4 130.33 73.8 130.66 101 131 C101 136.61 101 142.22 101 148 C65.36 148 29.72 148 -7 148 C-7 137.03723185 -6.75204137 133.89795773 -0.8125 125.9375 C-0.17755615 125.03829834 0.4573877 124.13909668 1.11157227 123.21264648 C2.42232881 121.35773477 3.74390261 119.51041978 5.07617188 117.67089844 C7.40097814 114.44331208 9.64048569 111.16357066 11.87231445 107.87133789 C13.45665802 105.5342396 15.05288262 103.20567997 16.65234375 100.87890625 C20.28111969 95.5947101 23.89092994 90.29766677 27.5 85 C32.20236427 78.10007259 36.90926519 71.20329684 41.625 64.3125 C42.15279053 63.54107666 42.68058105 62.76965332 43.22436523 61.97485352 C45.90569045 58.05668943 48.58968302 54.14038367 51.27734375 50.2265625 C51.8276123 49.42436279 52.37788086 48.62216309 52.94482422 47.7956543 C53.95719114 46.31988428 54.97040125 44.84469192 55.98486328 43.37036133 C61.74438568 34.97049468 67.34886986 26.4766952 73 18 C48.91 17.67 24.82 17.34 0 17 C0 11.39 0 5.78 0 0 Z " fill="#C43238" transform="translate(401,318)"/>
<path d="M0 0 C7.92 0 15.84 0 24 0 C28.56152596 12.3316282 33.12077158 24.66408973 37.67488098 36.99845886 C39.66325072 42.38320269 41.65386919 47.76709569 43.64912415 53.14929199 C44.41214988 55.20891654 45.17361068 57.26911102 45.93432617 59.32958984 C46.81982471 61.7280438 47.70779982 64.12558567 48.59887695 66.52197266 C51.33126565 73.94043848 53.74723054 81.42236191 56 89 C57.44248059 86.2529698 58.55427914 83.55502227 59.50537109 80.60327148 C59.78722763 79.73435776 60.06908417 78.86544403 60.35948181 77.97019958 C60.66108719 77.02999466 60.96269257 76.08978973 61.2734375 75.12109375 C61.93478857 73.0794187 62.59616664 71.03775239 63.25756836 68.99609375 C63.6033493 67.92472168 63.94913025 66.85334961 64.3053894 65.74951172 C69.72804826 48.95843864 75.21760801 32.19233812 80.9375 15.5 C81.1920697 14.75362274 81.4466394 14.00724548 81.70892334 13.23825073 C82.41575798 11.16803715 83.12682971 9.09934223 83.83984375 7.03125 C84.43333618 5.30745117 84.43333618 5.30745117 85.03881836 3.54882812 C86 1 86 1 87 0 C88.70772358 -0.08713831 90.41898649 -0.10700007 92.12890625 -0.09765625 C93.68061523 -0.09282227 93.68061523 -0.09282227 95.26367188 -0.08789062 C96.35228516 -0.07951172 97.44089844 -0.07113281 98.5625 -0.0625 C100.2012207 -0.05573242 100.2012207 -0.05573242 101.87304688 -0.04882812 C104.58208495 -0.03699826 107.29101599 -0.02051543 110 0 C109.27887798 4.50072057 107.75866015 8.62505647 106.1484375 12.8671875 C105.85778915 13.64177307 105.56714081 14.41635864 105.26768494 15.2144165 C104.30750138 17.76948792 103.34148329 20.32230549 102.375 22.875 C101.69801476 24.67035509 101.02117785 26.46576612 100.34448242 28.26123047 C91.38242465 52.01018973 82.33516216 75.7299536 72.97518921 99.32537842 C72.45521741 100.63712316 71.936813 101.94949042 71.42007446 103.26251221 C70.71634136 105.04820054 70.00486946 106.83083336 69.29296875 108.61328125 C68.69778442 110.11048706 68.69778442 110.11048706 68.09057617 111.63793945 C67 114 67 114 65 116 C63.00390625 116.046875 63.00390625 116.046875 60.5625 115.75 C59.78003906 115.66234375 58.99757813 115.5746875 58.19140625 115.484375 C57.13824219 115.32453125 56.08507812 115.1646875 55 115 C54.16259277 115.03343506 53.32518555 115.06687012 52.46240234 115.10131836 C49.07425099 114.99447427 47.00725137 114.60166765 44 113 C40.46890407 107.7845186 38.59780397 101.96757525 36.5 96.0625 C35.81881983 94.24862681 35.13253533 92.43666383 34.44165039 90.62646484 C33.29084774 87.60837344 32.14439354 84.5891031 31.01319885 81.56359863 C27.47507567 72.12049712 23.71076016 62.77807812 19.90234375 53.44140625 C19.28144243 51.91692075 18.66060302 50.39241003 18.03982544 48.86787415 C16.79470595 45.81124706 15.54898088 42.7548677 14.30273438 39.69869995 C13.99496063 38.94393749 13.68718689 38.18917503 13.37008667 37.41154099 C12.74723741 35.88442247 12.12421023 34.35737651 11.50100708 32.83040237 C9.70610229 28.43110072 7.91784187 24.02921452 6.1394062 19.62322807 C5.58976903 18.26508916 5.0375852 16.90797784 4.4827404 15.55195808 C3.71835501 13.68323397 2.96331303 11.81069615 2.20874023 9.93798828 C1.56617531 8.35596115 1.56617531 8.35596115 0.91062927 6.74197388 C0 4 0 4 0 0 Z " fill="#C43237" transform="translate(297,359)"/>
<path d="M0 0 C11.54468309 11.28813458 16.5443398 26.8257815 16.8515625 42.77832031 C16.78814788 59.86063448 12.94910195 76.23972863 1.0625 89.125 C-3.47627261 93.34772655 -8.58674216 96.16005418 -14.1875 98.75 C-15.24710938 99.245 -15.24710938 99.245 -16.328125 99.75 C-27.8336902 104.31709458 -41.65141948 103.57693929 -53.1875 99.75 C-67.08582954 93.64872074 -74.92375624 84.29286604 -81.14453125 70.68359375 C-84.01251214 62.61672615 -84.5258492 54.96256459 -84.5 46.4375 C-84.51611328 45.38626953 -84.53222656 44.33503906 -84.54882812 43.25195312 C-84.55851986 27.48350765 -79.61579555 13.44846354 -68.59375 2.00390625 C-48.44661479 -16.86767981 -21.45619022 -15.14554604 0 0 Z M-57.11328125 10.2109375 C-68.24419272 23.83634702 -69.42317796 39.90875224 -68.1875 56.75 C-66.70658804 67.63758458 -60.77776836 77.72550119 -52.1171875 84.5 C-44.57593312 89.38502308 -37.09086582 90.89236308 -28.1875 89.75 C-18.17952343 87.30585543 -10.86847468 80.96597279 -5.50390625 72.3125 C2.06418483 57.58054823 2.09736345 41.38891796 -2.1875 25.75 C-5.51748937 16.37576577 -11.50800252 8.3396828 -20.4375 3.75 C-33.29166123 -2.14490197 -46.87732728 0.39765308 -57.11328125 10.2109375 Z " fill="#C4343A" transform="translate(584.1875,359.25)"/>
<path d="M0 0 C1.20269531 0.22139648 1.20269531 0.22139648 2.4296875 0.44726562 C4.41254855 0.8131507 6.39392377 1.18707121 8.375 1.5625 C9.50749575 4.96931589 9.41430222 5.47065693 7.890625 9.03125 C7.15367652 10.3851003 6.39716289 11.72842048 5.625 13.0625 C5.22031494 13.77011475 4.81562988 14.47772949 4.39868164 15.20678711 C0.23907973 22.21056127 -4.81856744 27.89514367 -10.625 33.5625 C-11.27984375 34.23796875 -11.9346875 34.9134375 -12.609375 35.609375 C-19.83632196 42.58924685 -29.64234858 47.57059323 -39.625 48.5625 C-40.46357688 45.95991676 -41.29603344 43.35564353 -42.125 40.75 C-42.36347656 40.01201172 -42.60195313 39.27402344 -42.84765625 38.51367188 C-43.82440136 35.42994804 -44.625 32.81754191 -44.625 29.5625 C-43.73039062 29.16160156 -42.83578125 28.76070313 -41.9140625 28.34765625 C-29.72651747 22.69350107 -19.02781011 14.63342181 -12.375 2.6875 C-9.18323812 -3.01207478 -5.64634115 -1.07702124 0 0 Z " fill="#C43338" transform="translate(347.625,481.4375)"/>
<path d="M0 0 C0.66 0.33 1.32 0.66 2 1 C-1.96 4.96 -5.92 8.92 -10 13 C-10.66 12.67 -11.32 12.34 -12 12 C-8.32167983 7.47384007 -4.58913637 3.60575001 0 0 Z " fill="#D46A6E" transform="translate(191,321)"/>
</svg>
